#!OML:ASF E:/inclinewalkrobotboard/Project1/Captureday1/Session1/subject1.ASF
:FULLY-SPECIFIED
:DEGREES
138
root 0 0 0 -1.756864014473062 -5.371511383808736 -7.347536947284153
lowerback 10.107952684031318 2.457727393067784 5.6860338385425395
upperback 0.06424250646026691 4.014122912004838 1.4708518905975376
thorax -5.520690350570314 1.8493724073777034 -2.223948605483222
lowerneck -14.853759846450403 -3.3419858375951623 -0.9818025369768206
upperneck 17.49367377472473 -4.584622692642038 1.3211962772051464
head 8.042313783069693 -2.138998567959307 0.09039409849704677
rclavicle -1.4769484861836165E-16 -4.964657368515275E-17
rhumerus -19.084339638620936 -6.692794010652708 -66.79632726478098
rradius 62.42784931614506
rwrist -8.790775398356761
rhand -13.114060407202352 -10.633481740632352
rfingers 7.125019999999854
rthumb 13.011611339066361 -39.840776126823926
lclavicle -8.493126391335991E-16 -3.848362666351814E-16
lhumerus -39.91653416278104 0.2875680642537368 83.3116386979831
lradius 38.61528893760798
lwrist 2.575386536706158
lhand -19.146617372926336 -0.018842008764350382
lfingers 7.125019999999873
lthumb 7.059880403833697 29.47276968416712
rfemur -4.447700743209477 3.7557727317989467 18.056567892363383
rtibia 22.889546085297845
rfoot -6.215174920652865 -3.350145379060407
rtoes 1.9654175311976259
lfemur -16.42488702930118 -1.64471783995371 -12.675790003142035
ltibia 37.869142035620385
lfoot -8.523240094000485 0.7866672150118639
ltoes -19.729192858301243
139
root 0 0 0 -1.7220582352120646 -5.348254193561281 -7.334178843703999
lowerback 10.096672763164818 2.4658622721269015 5.637916715202644
upperback 0.04865694071875604 4.020373116081829 1.4449742964430092
thorax -5.53103627770913 1.8509144752293603 -2.224910217185883
lowerneck -14.717828378281535 -3.3344258630257837 -0.9440169170988758
upperneck 17.333606051954206 -4.586826028806656 1.3566506379539245
head 7.980283956858408 -2.136533950369179 0.10043329409233975
rclavicle -1.5297161446711975E-16 -4.7373447727651195E-17
rhumerus -19.13659316530365 -6.732488394825641 -66.84588074356215
rradius 62.289028934118434
rwrist -8.736326901071484
rhand -13.130469801842212 -10.516940778732817
rfingers 7.1250199999998545
rthumb 12.996560730284575 -39.72521968608919
lclavicle -8.701643977846416E-16 -3.980716588288296E-16
lhumerus -40.26380427930078 0.3131653606167161 83.34500053929773
lradius 39.0736026806376
lwrist 2.4211884269416393
lhand -18.7837235092785 -1.1252524335983356
lfingers 7.125019999999866
lthumb 7.403274328967914 28.35118081029263
rfemur -4.5902045241835125 2.9788148249774693 16.101906103727224
rtibia 24.11470100177859
rfoot -3.822926477480513 -2.7109959913199266
rtoes 2.8329613040545745
lfemur -14.998912751541873 -1.9799590807405003 -12.996186243879436
ltibia 35.69655187491639
lfoot -9.955716374350693 1.694926131280031
ltoes -21.491002621329223
140
root 0 0 0 -1.7096890839296308 -5.3259957960934 -7.306106913477318
lowerback 10.093581054446592 2.461374723647488 5.595551367834829
upperback 0.042753076676130486 4.009886199347283 1.433710030354399
thorax -5.53545141150823 1.8456693864257647 -2.211755013537333
lowerneck -14.66408045889299 -3.330230958920092 -0.9314413725443771
upperneck 17.26783159875202 -4.585619789697258 1.3707917848943243
head 7.95621006113168 -2.1346079007810514 0.10518252970522124
rclavicle -1.582787209295805E-16 -5.1571057351267893E-17
rhumerus -19.252117112862344 -6.848263709968199 -66.96703901467812
rradius 61.92607530480688
rwrist -8.60126191595373
rhand -13.17690646098569 -10.186600792307392
rfingers 7.125019999999856
rthumb 12.951388127728604 -39.402272508993306
lclavicle -8.770235116648315E-16 -4.074615435699474E-16
lhumerus -40.399944364950215 0.32438318032230395 83.35847909230777
lradius 39.25133629480573
lwrist 2.3600165633826706
lhand -18.6419911749551 -1.5590809107336607
lfingers 7.1250199999998625
lthumb 7.538074267525998 27.913491369653528
rfemur -5.190106142335989 2.5760985237533323 15.337415016835964
rtibia 25.587644614621183
rfoot -2.521584570934315 -2.5172465822684247
rtoes 3.418206947879364
lfemur -14.206560438648797 -2.123729503794408 -13.264231503034132
ltibia 34.71306478869465
lfoot -10.557606399199958 2.009901153613063
ltoes -22.037618988951024
141
root 0 0 0 -1.6985668329071084 -5.30275510777906 -7.275767088544406
lowerback 10.090996571981119 2.4557529121250035 5.552145791227738
upperback 0.03727660040311365 3.9977579408084423 1.4231681384060995
thorax -5.539976744372769 1.8397678521322423 -2.1971393030069954
lowerneck -14.61530406163038 -3.3262939779075107 -0.9204278597069647
upperneck 17.20623648797421 -4.584249897826477 1.3839997490577736
head 7.933967460396365 -2.132785042799265 0.10974891434868334
rclavicle -1.6422145293438218E-16 -5.725941680255607E-17
rhumerus -19.35720937324045 -6.957877628523066 -67.08058345962503
rradius 61.581225962104284
rwrist -8.47567045175138
rhand -13.221692348639316 -9.870278941302622
rfingers 7.125019999999858
rthumb 12.907908699943015 -39.09180852702638
lclavicle -8.785199900001768E-16 -4.1127535108314063E-16
lhumerus -40.46336134625189 0.32672677722388355 83.36488426487979
lradius 39.34010398262549
lwrist 2.332178649949912
lhand -18.57426624983244 -1.7674045805443424
lfingers 7.125019999999862
lthumb 7.602700497363173 27.703411571265676
rfemur -5.7942819594376695 2.386185763011858 15.058601098193872
rtibia 26.592617361332913
rfoot -1.9127242504346187 -2.518495786117041
rtoes 3.710815752674288
lfemur -13.466118473426079 -2.247244929402145 -13.540563781060415
ltibia 33.84901183710432
lfoot -11.069737700247863 2.2545819695364697
ltoes -22.426876490310935
142
root 0 0 0 -1.6878079890484288 -5.281573086902422 -7.249252390800971
lowerback 10.088344846545667 2.4508622161474483 5.513590416977513
upperback 0.0320105340666495 3.986988310130257 1.4136795320651467
thorax -5.544580831854585 1.834593861796566 -2.184464430317343
lowerneck -14.570845398829174 -3.3228108758682993 -0.9100866167517901
upperneck 17.14796248522915 -4.5831827928750135 1.3965175313879281
head 7.913537597085401 -2.1311833208376245 0.1139645870587151
rclavicle -1.6821302772167995E-16 -6.182164151722746E-17
rhumerus -19.432328096474695 -7.037625481413522 -67.16407419161568
rradius 61.32829268672266
rwrist -8.3847766527314
rhand -13.254874878407682 -9.637793175608882
rfingers 7.12501999999986
rthumb 12.87580933655591 -38.863437491247915
lclavicle -8.741619614560657E-16 -4.121044501918066E-16
lhumerus -40.47322724654719 0.32277675165768965 83.36627121003353
lradius 39.363798053594536
lwrist 2.328571745536248
lhand -18.560777747851375 -1.8109930729478982
lfingers 7.125019999999861
lthumb 7.616018625686462 27.65976313763293
rfemur -6.136979060957765 2.4090772456147445 15.122715181619625
rtibia 26.64518953418056
rfoot -2.0442077374592875 -2.650055963456021
rtoes 3.6166430585688047
lfemur -12.666409578470555 -2.385135356423212 -13.825762040502486
ltibia 32.894146118335556
lfoot -11.647433092417563 2.54041214223939
ltoes -22.90813851115046
143
root 0 0 0 -1.6708001987332524 -5.243024742332956 -7.201460004807931
lowerback 10.083811485144095 2.438673500671129 5.447280787438844
upperback 0.02409032548437018 3.9625573606530713 1.400740107004532
thorax -5.551780761959158 1.8233014409622221 -2.15871906489021
lowerneck -14.507726775493321 -3.316418056765171 -0.8954428126757429
upperneck 17.06122936758159 -4.579216803953961 1.4144550972534566
head 7.884389717060869 -2.1277730531332804 0.12018345219399057
rclavicle -1.7156823534958353E-16 -6.582282458798538E-17
rhumerus -19.47508900681477 -7.0858102758558665 -67.21462666477017
rradius 61.17195845836876
rwrist -8.331404148868332
rhand -13.276025414466073 -9.491954100954901
rfingers 7.125019999999861
rthumb 12.855564431937605 -38.71883523683846
lclavicle -8.638138974792282E-16 -4.083593894715226E-16
lhumerus -40.44190183831508 0.3095521423619137 83.36346442019614
lradius 39.347779026185655
lwrist 2.344565986334766
lhand -18.585766803488973 -1.7377782186158477
lfingers 7.125019999999861
lthumb 7.592451708019558 27.732529127183266
rfemur -6.127499858493017 2.6549861804538377 15.413381254921457
rtibia 25.2539455390772
rfoot -3.039504982833966 -2.915504452481577
rtoes 2.9765220388703844
lfemur -11.13851033247106 -2.657587906895473 -14.357314453405156
ltibia 31.02254912648082
lfoot -12.784647916135636 3.1144812284856025
ltoes -23.896495230698587
144
root 0 0 0 -1.666713427875035 -5.215817205529117 -7.162058714168502
lowerback 10.082840795975178 2.425091515720351 5.4017885346862595
upperback 0.022211138106541017 3.9385188183162807 1.396854048675054
thorax -5.553975100565204 1.812552710130158 -2.1347721710451655
lowerneck -14.492077240877444 -3.312731550499818 -0.894122038988436
upperneck 17.034919688270982 -4.574726549695601 1.4192785756801465
head 7.877277072908111 -2.125307740078453 0.12257957145390308
rclavicle -1.7143322197725197E-16 -6.802094461767755E-17
rhumerus -19.512393291599103 -7.124592842293491 -67.25570926294817
rradius 61.05069597152607
rwrist -8.287095746836469
rhand -13.291717419216052 -9.38106636855489
rfingers 7.125019999999861
rthumb 12.840158239419491 -38.611139610847104
lclavicle -8.579898302644674E-16 -4.0994239436636136E-16
lhumerus -40.403423081423725 0.306256810048684 83.3601415404359
lradius 39.29933577887142
lwrist 2.360762611048357
lhand -18.624620904672334 -1.6201018487063283
lfingers 7.125019999999862
lthumb 7.555896855449754 27.85272192572447
rfemur -5.97061842102473 2.803789622662772 15.533779239345009
rtibia 24.20121577499382
rfoot -3.65588397750604 -3.036665372833926
rtoes 2.556123742937924
lfemur -9.964152073344822 -2.857653559389277 -14.798358666465077
ltibia 29.627124121648475
lfoot -13.601005520913798 3.497758236425941
ltoes -24.50148636430475
145
root 0 0 0 -1.665228545252694 -5.178218832634413 -7.104113621883627
lowerback 10.082721129821213 2.403602099201562 5.338679359862631
upperback 0.02158591500416346 3.9016306637519373 1.3939411373983186
thorax -5.555159871256963 1.796072336273543 -2.09822272628217
lowerneck -14.483958390471305 -3.3077018511120784 -0.8965436018866545
upperneck 17.0174565522193 -4.567126926776508 1.4214823398979528
head 7.8735649724125185 -2.1217137255837213 0.12482533739793655
rclavicle -1.7247433287481536E-16 -7.065956371087664E-17
rhumerus -19.548143857306798 -7.1616893792085605 -67.2931051273598
rradius 60.93534109331847
rwrist -8.245309393537323
rhand -13.306509785206261 -9.27545158435009
rfingers 7.125019999999862
rthumb 12.825726863050638 -38.50729321126744
lclavicle -8.561689472066765E-16 -4.107237525688504E-16
lhumerus -40.36441459041675 0.30509827834453734 83.35645721210976
lradius 39.24453919796418
lwrist 2.3766570920509187
lhand -18.665115818418386 -1.4950837682679818
lfingers 7.1250199999998625
lthumb 7.51712253995257 27.980188531905412
rfemur -5.880244295751559 2.8431381408472234 15.469579927609884
rtibia 23.613144110761056
rfoot -3.8763916256872886 -3.0677031232836596
rtoes 2.3493324566150133
lfemur -8.725810050764945 -3.055491898899075 -15.313222938492547
ltibia 28.21300366166789
lfoot -14.379925251518394 3.8228711873404593
ltoes -24.91157282683234
